<?xml version="1.0" standalone="no"?>
<!DOCTYPE svg PUBLIC "-//W3C//DTD SVG 20010904//EN"
 "http://www.w3.org/TR/2001/REC-SVG-20010904/DTD/svg10.dtd">
<svg version="1.0" xmlns="http://www.w3.org/2000/svg"
 width="260.000000pt" height="260.000000pt" viewBox="0 0 260.000000 260.000000"
 preserveAspectRatio="xMidYMid meet">
<metadata>
Created by potrace 1.11, written by Peter Selinger 2001-2013
</metadata>
<g transform="translate(0.000000,260.000000) scale(0.100000,-0.100000)"
fill="#000000" stroke="none">
<path d="M987 2200 c-30 -9 -94 -53 -114 -80 -7 -8 -26 -42 -43 -75 -17 -34
-78 -151 -136 -260 -58 -110 -135 -256 -171 -325 -36 -69 -84 -159 -106 -200
-63 -115 -203 -384 -253 -486 -34 -69 -46 -103 -46 -138 0 -132 90 -232 219
-243 108 -9 195 45 252 156 18 36 53 102 77 147 l43 81 356 0 355 0 45 -89
c128 -249 167 -289 287 -294 74 -3 119 11 169 54 56 48 82 103 83 178 1 55 -4
71 -57 175 -75 149 -192 375 -244 469 -22 41 -69 129 -103 195 -90 172 -159
303 -190 360 -15 28 -53 101 -85 163 -32 63 -69 127 -83 144 -53 63 -169 94
-255 68z m120 -830 c63 -120 67 -110 -43 -110 -71 0 -95 3 -92 13 5 20 89 179
92 176 2 -2 21 -38 43 -79z"/>
<path d="M2268 852 c-10 -2 -18 -8 -18 -13 0 -6 -6 -9 -12 -7 -22 5 -90 -43
-84 -59 3 -8 2 -12 -3 -9 -10 7 -45 -42 -47 -64 0 -8 -4 -23 -9 -33 -11 -25 2
-119 17 -129 7 -4 9 -8 5 -8 -4 0 -3 -9 3 -20 6 -11 15 -18 21 -15 5 4 9 3 8
-2 -1 -4 -1 -13 0 -19 2 -16 75 -65 100 -67 11 -1 21 -5 21 -9 0 -4 9 -8 20
-8 18 0 24 10 22 31 -1 4 9 15 21 25 21 18 21 18 7 1 -8 -11 -15 -28 -17 -38
-3 -18 2 -20 38 -16 23 2 44 8 48 13 3 5 15 11 26 13 39 6 110 90 118 138 1
10 6 24 11 32 5 8 3 16 -5 22 -11 7 -11 9 -1 9 17 0 9 52 -17 105 -26 55 -108
125 -125 108 -3 -3 -6 -1 -6 6 0 8 -8 11 -20 8 -11 -3 -18 -2 -15 2 4 8 -75
10 -107 3z m178 -57 c1 -8 -1 -17 -5 -19 -4 -3 -7 6 -7 19 0 25 8 25 12 0z
m-239 -4 c0 -11 -5 -18 -9 -15 -4 3 -5 11 -1 19 7 21 12 19 10 -4z m60 4 c0
-8 -4 -12 -9 -9 -4 3 -8 9 -8 15 0 5 4 9 8 9 5 0 9 -7 9 -15z m53 11 c0 -2 -8
-10 -17 -17 -16 -13 -17 -12 -4 4 13 16 21 21 21 13z m7 -53 c0 -9 -4 -10 -14
-2 -7 6 -13 12 -13 14 0 1 6 2 13 2 8 0 14 -6 14 -14z m-163 -11 c3 -5 -1 -9
-9 -9 -8 0 -12 4 -9 9 3 4 7 8 9 8 2 0 6 -4 9 -8z m37 -9 c13 -16 12 -17 -3
-4 -17 13 -22 21 -14 21 2 0 10 -8 17 -17z m210 4 c-6 -8 -9 -16 -6 -19 3 -2
-2 -5 -10 -5 -13 0 -13 3 2 19 19 21 31 25 14 5z m34 -26 c0 -22 -2 -42 -5
-45 -4 -4 -5 72 -1 82 4 10 7 -4 6 -37z m-75 9 c0 -4 -7 -7 -15 -6 -23 3 -26
12 -5 13 11 1 20 -2 20 -7z m-164 -59 c0 -27 -3 -48 -6 -46 -5 3 -5 80 -1 93
5 12 7 -6 7 -47z m44 35 c-7 -7 -13 -7 -20 0 -6 6 -3 10 10 10 13 0 16 -4 10
-10z m244 2 c-3 -4 -9 -8 -15 -8 -5 0 -9 4 -9 8 0 5 7 9 15 9 8 0 12 -4 9 -9z
m-146 -23 c-3 -3 -9 2 -12 12 -6 14 -5 15 5 6 7 -7 10 -15 7 -18z m-198 11 c0
-2 -7 -7 -16 -10 -8 -3 -12 -2 -9 4 6 10 25 14 25 6z m104 -24 c3 -5 -1 -9 -9
-9 -8 0 -15 4 -15 9 0 4 4 8 9 8 6 0 12 -4 15 -8z m95 -15 c8 -10 7 -14 -2
-14 -8 0 -14 6 -14 14 0 7 1 13 2 13 2 0 8 -6 14 -13z m201 9 c0 -2 -8 -10
-17 -17 -16 -13 -17 -12 -4 4 13 16 21 21 21 13z m-144 -28 c19 -23 19 -23 -2
-5 -11 9 -24 14 -29 10 -4 -5 -5 -2 -1 5 9 16 10 16 32 -10z m44 12 c0 -5 -2
-10 -4 -10 -3 0 -8 5 -11 10 -3 6 -1 10 4 10 6 0 11 -4 11 -10z m-310 -14 c0
-2 -8 -10 -17 -17 -16 -13 -17 -12 -4 4 13 16 21 21 21 13z m34 -4 c3 -5 -1
-9 -9 -9 -8 0 -12 4 -9 9 3 4 7 8 9 8 2 0 6 -4 9 -8z m80 -23 c3 -3 -5 -5 -19
-5 -13 0 -22 3 -19 7 4 8 30 6 38 -2z m136 2 c0 -6 -4 -12 -8 -15 -5 -3 -9 1
-9 9 0 8 4 15 9 15 4 0 8 -4 8 -9z m-224 -19 c-3 -3 -1 -10 4 -17 7 -8 6 -12
-3 -12 -7 0 -13 11 -13 23 0 12 4 20 9 17 4 -3 6 -8 3 -11z m330 -4 c3 -4 -1
-5 -10 -4 -8 1 -18 5 -22 8 -3 4 1 5 10 4 8 -1 18 -5 22 -8z m-226 -2 c0 -2
-8 -10 -17 -17 -16 -13 -17 -12 -4 4 13 16 21 21 21 13z m41 -13 c13 -16 12
-17 -3 -4 -10 7 -18 15 -18 17 0 8 8 3 21 -13z m-81 -2 c0 -6 -4 -12 -8 -15
-5 -3 -9 1 -9 9 0 8 4 15 9 15 4 0 8 -4 8 -9z m215 -1 c3 -5 1 -10 -4 -10 -6
0 -11 5 -11 10 0 6 2 10 4 10 3 0 8 -4 11 -10z m-35 -21 c0 -5 -4 -9 -8 -9 -5
0 -9 7 -9 15 0 8 4 12 9 9 4 -3 8 -9 8 -15z m-220 -3 c0 -2 -6 -9 -14 -15 -11
-9 -16 -9 -22 0 -4 7 -3 9 4 5 6 -3 13 -2 17 4 6 10 15 14 15 6z m256 -20 c0
-14 -3 -23 -7 -20 -6 3 -6 22 0 42 3 10 7 -2 7 -22z m-116 9 c0 -7 -30 -13
-34 -7 -3 4 4 9 15 9 10 1 19 0 19 -2z m-75 -25 c-3 -5 -12 -10 -18 -10 -7 0
-6 4 3 10 19 12 23 12 15 0z m31 -24 c0 -19 -3 -33 -7 -31 -7 5 -4 65 4 65 1
0 3 -15 3 -34z m208 26 c3 -5 -1 -9 -9 -9 -8 0 -15 4 -15 9 0 4 4 8 9 8 6 0
12 -4 15 -8z m-44 -26 c0 -2 -8 -10 -17 -17 -16 -13 -17 -12 -4 4 13 16 21 21
21 13z m-240 -20 c-7 -7 -13 -7 -20 0 -6 6 -3 10 10 10 13 0 16 -4 10 -10z
m161 -33 c13 -16 12 -17 -3 -4 -17 13 -22 21 -14 21 2 0 10 -8 17 -17z"/>
</g>
</svg>
